<?xml version="1.0" encoding="utf-8"?>
<!-- Generator: Adobe Illustrator 26.5.2, SVG Export Plug-In . SVG Version: 6.00 Build 0)  -->
<svg version="1.1" xmlns="http://www.w3.org/2000/svg" xmlns:xlink="http://www.w3.org/1999/xlink" x="0px" y="0px"
	 viewBox="0 0 181 36" style="enable-background:new 0 0 181 36;" xml:space="preserve">
<style type="text/css">
	.st0{display:none;}
	.st1{display:inline;}
	.st2{fill:none;}
	.st3{stroke:#000000;stroke-width:0.5;stroke-miterlimit:10;}
	.st4{fill:#F6A348;}
	.st5{fill:#D4D7DC;}
	.st6{fill:#FFFFFF;}
</style>
<g id="Data" class="st0">
</g>
<g id="Bars">
	<polygon class="st4" points="0.05,0.11 0.05,11.45 177.82,11.34 180.66,8.5 180.66,0 	"/>
	<polygon class="st5" points="0,24.51 0,35.85 112.86,35.85 115.7,33.02 115.7,24.51 	"/>
	<polygon class="st5" points="0,12.31 0,23.65 169.12,23.65 171.96,20.81 171.96,12.31 	"/>
</g>
<g id="Text">
	<g>
		<path class="st6" d="M8.79,4.97c0-0.44-0.19-0.66-0.57-0.66c-0.21,0-0.37,0.07-0.47,0.22S7.6,4.92,7.59,5.23H6.26
			C6.29,4.54,6.5,4.02,6.88,3.68c0.38-0.35,0.87-0.52,1.46-0.52c0.61,0,1.08,0.16,1.39,0.46c0.31,0.31,0.47,0.71,0.47,1.21
			c0,0.55-0.21,1.09-0.63,1.61S8.64,7.41,8.05,7.77h2.23v1.1H6.25V7.85C7.95,6.64,8.79,5.68,8.79,4.97z"/>
		<path class="st6" d="M11.05,6.05c0-0.88,0.18-1.58,0.54-2.09c0.36-0.51,0.93-0.77,1.71-0.77c0.78,0,1.35,0.26,1.71,0.77
			c0.36,0.52,0.54,1.21,0.54,2.09c0,0.88-0.18,1.59-0.54,2.1c-0.36,0.52-0.93,0.78-1.71,0.78c-0.78,0-1.35-0.26-1.71-0.78
			C11.23,7.64,11.05,6.94,11.05,6.05z M14.19,6.05c0-0.51-0.06-0.89-0.18-1.16s-0.36-0.4-0.71-0.4c-0.36,0-0.6,0.14-0.72,0.41
			c-0.12,0.27-0.18,0.66-0.18,1.16c0,0.51,0.06,0.9,0.18,1.17c0.12,0.27,0.36,0.41,0.72,0.41c0.35,0,0.59-0.14,0.71-0.41
			S14.19,6.56,14.19,6.05z"/>
		<path class="st6" d="M18.79,4.97c0-0.44-0.19-0.66-0.57-0.66c-0.21,0-0.37,0.07-0.47,0.22s-0.15,0.38-0.16,0.7h-1.34
			c0.03-0.69,0.24-1.21,0.62-1.55c0.38-0.35,0.87-0.52,1.46-0.52c0.61,0,1.08,0.16,1.39,0.46c0.31,0.31,0.47,0.71,0.47,1.21
			c0,0.55-0.21,1.09-0.63,1.61s-0.93,0.97-1.51,1.33h2.23v1.1h-4.03V7.85C17.95,6.64,18.79,5.68,18.79,4.97z"/>
		<path class="st6" d="M23.42,4.97c0-0.44-0.19-0.66-0.57-0.66c-0.21,0-0.37,0.07-0.47,0.22s-0.15,0.38-0.16,0.7h-1.34
			c0.03-0.69,0.24-1.21,0.62-1.55c0.38-0.35,0.87-0.52,1.46-0.52c0.61,0,1.08,0.16,1.39,0.46c0.31,0.31,0.47,0.71,0.47,1.21
			c0,0.55-0.21,1.09-0.63,1.61s-0.93,0.97-1.51,1.33h2.23v1.1h-4.03V7.85C22.57,6.64,23.42,5.68,23.42,4.97z"/>
	</g>
	<g>
		<path class="st6" d="M158.37,4.33c-0.11-0.12-0.27-0.18-0.47-0.18c-0.31,0-0.53,0.14-0.66,0.43c-0.13,0.29-0.19,0.72-0.18,1.32
			c0.09-0.22,0.25-0.39,0.47-0.52c0.22-0.12,0.48-0.19,0.77-0.19c0.53,0,0.96,0.16,1.26,0.48c0.31,0.32,0.46,0.79,0.46,1.39
			c0,0.38-0.08,0.71-0.23,1.01s-0.38,0.52-0.68,0.68c-0.3,0.16-0.66,0.24-1.08,0.24c-0.83,0-1.4-0.26-1.71-0.77
			c-0.32-0.51-0.47-1.22-0.47-2.13c0-1.04,0.17-1.81,0.5-2.31c0.34-0.49,0.88-0.74,1.64-0.74c0.6,0,1.05,0.17,1.36,0.51
			s0.48,0.77,0.52,1.28h-1.28C158.56,4.62,158.48,4.44,158.37,4.33z M157.38,7.59c0.14,0.15,0.34,0.23,0.61,0.23
			c0.24,0,0.43-0.07,0.56-0.2c0.14-0.13,0.2-0.33,0.2-0.58s-0.07-0.45-0.21-0.59s-0.33-0.2-0.57-0.2c-0.23,0-0.42,0.07-0.58,0.2
			c-0.15,0.13-0.23,0.32-0.23,0.56C157.17,7.24,157.24,7.44,157.38,7.59z"/>
		<path class="st6" d="M163.46,4.97c0-0.44-0.19-0.66-0.57-0.66c-0.21,0-0.37,0.07-0.47,0.22s-0.15,0.38-0.16,0.7h-1.34
			c0.03-0.69,0.24-1.21,0.62-1.55s0.87-0.52,1.46-0.52c0.61,0,1.08,0.16,1.39,0.46c0.31,0.31,0.47,0.71,0.47,1.21
			c0,0.55-0.21,1.09-0.63,1.61c-0.42,0.53-0.92,0.97-1.51,1.33h2.23v1.1h-4.03V7.85C162.61,6.64,163.46,5.68,163.46,4.97z"/>
		<path class="st6" d="M168.21,4.97c0-0.44-0.19-0.66-0.57-0.66c-0.21,0-0.37,0.07-0.47,0.22s-0.15,0.38-0.16,0.7h-1.34
			c0.03-0.69,0.24-1.21,0.62-1.55s0.87-0.52,1.46-0.52c0.61,0,1.08,0.16,1.39,0.46c0.31,0.31,0.47,0.71,0.47,1.21
			c0,0.55-0.21,1.09-0.63,1.61c-0.42,0.53-0.92,0.97-1.51,1.33h2.23v1.1h-4.03V7.85C167.36,6.64,168.21,5.68,168.21,4.97z"/>
		<path class="st6" d="M171.79,7.57v1.37h-1.42V7.57H171.79z"/>
		<path class="st6" d="M175.07,4.97c0-0.44-0.19-0.66-0.57-0.66c-0.21,0-0.37,0.07-0.47,0.22s-0.15,0.38-0.16,0.7h-1.34
			c0.03-0.69,0.24-1.21,0.62-1.55c0.38-0.35,0.87-0.52,1.46-0.52c0.61,0,1.08,0.16,1.39,0.46c0.31,0.31,0.47,0.71,0.47,1.21
			c0,0.55-0.21,1.09-0.63,1.61c-0.42,0.53-0.93,0.97-1.51,1.33h2.23v1.1h-4.03V7.85C174.22,6.64,175.07,5.68,175.07,4.97z"/>
	</g>
	<g>
		<path class="st6" d="M149.87,16.54h-2.54v1.14c0.11-0.13,0.27-0.23,0.47-0.3s0.42-0.11,0.65-0.11c0.38,0,0.7,0.08,0.95,0.25
			c0.26,0.17,0.45,0.39,0.57,0.68c0.12,0.28,0.18,0.59,0.18,0.94c0,0.62-0.17,1.11-0.52,1.47c-0.35,0.36-0.83,0.54-1.46,0.54
			c-0.43,0-0.8-0.08-1.11-0.23s-0.56-0.36-0.73-0.64c-0.17-0.27-0.26-0.59-0.27-0.94h1.34c0.03,0.18,0.1,0.33,0.22,0.45
			s0.28,0.18,0.49,0.18c0.24,0,0.42-0.08,0.54-0.23c0.12-0.15,0.18-0.36,0.18-0.62c0-0.25-0.06-0.43-0.19-0.57
			c-0.13-0.13-0.31-0.2-0.54-0.2c-0.18,0-0.32,0.04-0.44,0.12s-0.2,0.18-0.24,0.3h-1.33v-3.42h3.78V16.54z"/>
		<path class="st6" d="M153.17,20.09c0.31,0,0.53-0.14,0.65-0.42c0.12-0.28,0.18-0.72,0.17-1.32c-0.09,0.22-0.25,0.39-0.47,0.52
			c-0.22,0.12-0.48,0.19-0.77,0.19c-0.53,0-0.96-0.16-1.26-0.48c-0.31-0.32-0.46-0.79-0.46-1.39c0-0.38,0.08-0.71,0.23-1.01
			c0.15-0.29,0.38-0.52,0.68-0.68c0.3-0.16,0.66-0.24,1.08-0.24c0.57,0,1.02,0.12,1.34,0.36c0.32,0.24,0.54,0.57,0.66,0.98
			c0.12,0.41,0.18,0.91,0.18,1.49c0,1.02-0.16,1.8-0.47,2.32c-0.31,0.53-0.84,0.79-1.57,0.79c-0.41,0-0.75-0.08-1.04-0.24
			c-0.29-0.16-0.51-0.38-0.67-0.65c-0.16-0.27-0.25-0.57-0.27-0.9h1.28C152.55,19.86,152.78,20.09,153.17,20.09z M153.69,16.65
			c-0.14-0.15-0.34-0.23-0.61-0.23c-0.24,0-0.43,0.07-0.56,0.2c-0.14,0.13-0.2,0.33-0.2,0.58s0.07,0.45,0.21,0.59s0.33,0.2,0.57,0.2
			c0.23,0,0.42-0.07,0.58-0.2c0.15-0.13,0.23-0.32,0.23-0.56C153.89,17,153.82,16.8,153.69,16.65z"/>
		<path class="st6" d="M156.11,20.09v-1.14l2.58-3.54h1.47v3.5h0.68v1.19h-0.68v1.04h-1.38v-1.04H156.11z M158.89,16.99l-1.39,1.91
			h1.39V16.99z"/>
		<path class="st6" d="M163.01,19.77v1.37h-1.42v-1.37H163.01z"/>
		<path class="st6" d="M166.9,15.43c0.28,0.14,0.5,0.32,0.64,0.56c0.15,0.24,0.22,0.5,0.22,0.8c0,0.37-0.09,0.66-0.28,0.89
			c-0.19,0.22-0.43,0.37-0.71,0.42v0.04c0.73,0.24,1.1,0.69,1.1,1.37c0,0.33-0.07,0.62-0.22,0.87c-0.15,0.25-0.37,0.45-0.65,0.59
			c-0.29,0.14-0.63,0.21-1.03,0.21c-0.65,0-1.17-0.16-1.55-0.48c-0.38-0.32-0.59-0.81-0.62-1.46h1.34c0.01,0.25,0.08,0.45,0.21,0.59
			c0.13,0.14,0.31,0.22,0.56,0.22c0.2,0,0.35-0.06,0.47-0.18c0.12-0.12,0.17-0.27,0.17-0.46c0-0.46-0.34-0.7-1.01-0.7h-0.26v-1.11
			h0.25c0.6,0.01,0.9-0.21,0.9-0.65c0-0.19-0.05-0.34-0.16-0.44c-0.1-0.1-0.24-0.16-0.42-0.16c-0.19,0-0.34,0.07-0.46,0.2
			c-0.11,0.13-0.18,0.31-0.19,0.52h-1.34c0.03-0.6,0.21-1.06,0.56-1.38c0.35-0.32,0.83-0.48,1.46-0.48
			C166.28,15.23,166.62,15.3,166.9,15.43z"/>
	</g>
	<g>
		<path class="st6" d="M92.86,27.62c0.28,0.14,0.5,0.32,0.64,0.56s0.22,0.5,0.22,0.8c0,0.37-0.09,0.66-0.28,0.89
			c-0.19,0.22-0.43,0.37-0.71,0.42v0.04c0.73,0.24,1.1,0.69,1.1,1.37c0,0.33-0.08,0.62-0.22,0.87c-0.15,0.25-0.37,0.45-0.65,0.59
			c-0.29,0.14-0.63,0.21-1.03,0.21c-0.65,0-1.17-0.16-1.55-0.48c-0.38-0.32-0.59-0.81-0.62-1.46h1.34c0.01,0.25,0.08,0.45,0.21,0.59
			c0.13,0.14,0.31,0.22,0.56,0.22c0.2,0,0.35-0.06,0.47-0.18s0.17-0.27,0.17-0.46c0-0.46-0.34-0.7-1.01-0.7h-0.26v-1.11h0.25
			c0.6,0.01,0.9-0.21,0.9-0.65c0-0.19-0.05-0.34-0.16-0.44c-0.1-0.1-0.24-0.16-0.42-0.16c-0.19,0-0.34,0.07-0.46,0.2
			c-0.11,0.13-0.18,0.31-0.19,0.52h-1.34c0.03-0.6,0.21-1.06,0.56-1.38s0.83-0.48,1.46-0.48C92.24,27.42,92.58,27.49,92.86,27.62z"
			/>
		<path class="st6" d="M96.94,32.29c0.31,0,0.53-0.14,0.65-0.42c0.12-0.28,0.18-0.72,0.17-1.32c-0.09,0.22-0.25,0.39-0.47,0.52
			c-0.22,0.12-0.48,0.19-0.77,0.19c-0.53,0-0.96-0.16-1.26-0.48c-0.31-0.32-0.46-0.79-0.46-1.39c0-0.38,0.08-0.71,0.23-1.01
			c0.15-0.29,0.38-0.52,0.68-0.68c0.3-0.16,0.66-0.24,1.08-0.24c0.57,0,1.02,0.12,1.34,0.36c0.32,0.24,0.54,0.57,0.66,0.98
			s0.18,0.91,0.18,1.49c0,1.02-0.16,1.8-0.47,2.32c-0.31,0.53-0.84,0.79-1.57,0.79c-0.41,0-0.75-0.08-1.04-0.24
			c-0.29-0.16-0.51-0.38-0.67-0.65c-0.16-0.27-0.25-0.57-0.27-0.9h1.28C96.31,32.05,96.55,32.29,96.94,32.29z M97.46,28.84
			c-0.14-0.15-0.34-0.23-0.61-0.23c-0.24,0-0.43,0.07-0.56,0.2c-0.14,0.13-0.2,0.33-0.2,0.58s0.07,0.45,0.21,0.59s0.33,0.2,0.57,0.2
			c0.23,0,0.42-0.07,0.58-0.2c0.16-0.13,0.23-0.32,0.23-0.56C97.66,29.19,97.6,28.99,97.46,28.84z"/>
		<path class="st6" d="M100.3,28.17c0.16-0.24,0.39-0.43,0.69-0.58c0.31-0.15,0.68-0.22,1.12-0.22c0.44,0,0.82,0.08,1.12,0.22
			c0.31,0.15,0.54,0.34,0.69,0.58c0.15,0.24,0.23,0.5,0.23,0.77c0,0.3-0.07,0.55-0.21,0.76c-0.14,0.21-0.34,0.37-0.61,0.48
			c0.63,0.28,0.95,0.76,0.95,1.43c0,0.38-0.1,0.71-0.29,0.99c-0.19,0.27-0.45,0.48-0.78,0.62c-0.33,0.14-0.7,0.21-1.11,0.21
			c-0.41,0-0.77-0.07-1.1-0.21c-0.33-0.14-0.59-0.35-0.78-0.62c-0.19-0.27-0.29-0.6-0.29-0.99c0-0.67,0.32-1.15,0.95-1.43
			c-0.27-0.11-0.47-0.27-0.61-0.48s-0.21-0.46-0.21-0.76C100.06,28.67,100.14,28.41,100.3,28.17z M101.48,32.11
			c0.15,0.14,0.36,0.21,0.62,0.21c0.26,0,0.47-0.07,0.62-0.21c0.15-0.14,0.23-0.33,0.23-0.57s-0.08-0.43-0.24-0.56
			c-0.16-0.14-0.36-0.2-0.61-0.2c-0.25,0-0.46,0.07-0.61,0.2c-0.16,0.14-0.24,0.32-0.24,0.56S101.33,31.97,101.48,32.11z
			 M101.6,29.67c0.13,0.12,0.29,0.17,0.51,0.17c0.21,0,0.38-0.06,0.51-0.17c0.12-0.11,0.19-0.28,0.19-0.5c0-0.21-0.06-0.38-0.19-0.5
			c-0.13-0.12-0.3-0.18-0.5-0.18s-0.38,0.06-0.5,0.18c-0.13,0.12-0.19,0.29-0.19,0.5C101.41,29.39,101.47,29.56,101.6,29.67z"/>
		<path class="st6" d="M106.56,31.96v1.37h-1.42v-1.37H106.56z"/>
		<path class="st6" d="M110,28.71c-0.11-0.12-0.27-0.18-0.47-0.18c-0.31,0-0.53,0.14-0.66,0.43c-0.13,0.29-0.19,0.72-0.18,1.32
			c0.09-0.22,0.25-0.39,0.47-0.52c0.22-0.12,0.48-0.19,0.77-0.19c0.53,0,0.96,0.16,1.26,0.48c0.31,0.32,0.46,0.79,0.46,1.39
			c0,0.38-0.08,0.71-0.23,1.01s-0.38,0.52-0.68,0.68c-0.3,0.16-0.66,0.24-1.08,0.24c-0.83,0-1.4-0.26-1.71-0.77
			c-0.32-0.51-0.47-1.22-0.47-2.13c0-1.04,0.17-1.81,0.5-2.31c0.34-0.49,0.88-0.74,1.64-0.74c0.6,0,1.05,0.17,1.36,0.51
			s0.48,0.77,0.52,1.28h-1.28C110.19,29,110.11,28.83,110,28.71z M109.01,31.98c0.14,0.15,0.34,0.23,0.61,0.23
			c0.24,0,0.43-0.07,0.56-0.2c0.14-0.13,0.2-0.33,0.2-0.58s-0.07-0.45-0.21-0.59s-0.33-0.2-0.57-0.2c-0.23,0-0.42,0.07-0.58,0.2
			c-0.15,0.13-0.23,0.32-0.23,0.56C108.8,31.63,108.87,31.83,109.01,31.98z"/>
	</g>
	<g>
		<path class="st6" d="M8.79,17.16c0-0.44-0.19-0.66-0.57-0.66c-0.21,0-0.37,0.07-0.47,0.22s-0.15,0.38-0.16,0.7H6.25
			c0.03-0.69,0.24-1.21,0.62-1.55c0.38-0.35,0.87-0.52,1.46-0.52c0.61,0,1.08,0.16,1.39,0.46c0.31,0.31,0.47,0.71,0.47,1.21
			c0,0.55-0.21,1.09-0.63,1.61s-0.93,0.97-1.51,1.33h2.23v1.1H6.24v-1.02C7.94,18.83,8.79,17.87,8.79,17.16z"/>
		<path class="st6" d="M11.04,18.25c0-0.88,0.18-1.58,0.54-2.09c0.36-0.51,0.93-0.77,1.71-0.77c0.78,0,1.35,0.26,1.71,0.77
			c0.36,0.52,0.54,1.21,0.54,2.09c0,0.88-0.18,1.59-0.54,2.1c-0.36,0.52-0.93,0.78-1.71,0.78c-0.78,0-1.35-0.26-1.71-0.78
			C11.22,19.83,11.04,19.13,11.04,18.25z M14.18,18.25c0-0.51-0.06-0.89-0.18-1.16s-0.36-0.4-0.71-0.4c-0.36,0-0.6,0.14-0.72,0.41
			c-0.12,0.27-0.18,0.66-0.18,1.16c0,0.51,0.06,0.9,0.18,1.17c0.12,0.27,0.36,0.41,0.72,0.41c0.35,0,0.59-0.14,0.71-0.41
			S14.18,18.75,14.18,18.25z"/>
		<path class="st6" d="M18.79,17.16c0-0.44-0.19-0.66-0.57-0.66c-0.21,0-0.37,0.07-0.47,0.22s-0.15,0.38-0.16,0.7h-1.34
			c0.03-0.69,0.24-1.21,0.62-1.55c0.38-0.35,0.87-0.52,1.46-0.52c0.61,0,1.08,0.16,1.39,0.46c0.31,0.31,0.47,0.71,0.47,1.21
			c0,0.55-0.21,1.09-0.63,1.61s-0.93,0.97-1.51,1.33h2.23v1.1h-4.03v-1.02C17.94,18.83,18.79,17.87,18.79,17.16z"/>
		<path class="st6" d="M20.51,16.76v-1.28h2.29v5.66h-1.44v-4.38H20.51z"/>
	</g>
	<g>
		<path class="st6" d="M8.79,29.06c0-0.44-0.19-0.66-0.57-0.66c-0.21,0-0.37,0.07-0.47,0.22s-0.15,0.38-0.16,0.7H6.25
			c0.03-0.69,0.24-1.21,0.62-1.55c0.38-0.35,0.87-0.52,1.46-0.52c0.61,0,1.08,0.16,1.39,0.46c0.31,0.31,0.47,0.71,0.47,1.21
			c0,0.55-0.21,1.09-0.63,1.61s-0.93,0.97-1.51,1.33h2.23v1.1H6.24v-1.02C7.94,30.74,8.79,29.78,8.79,29.06z"/>
		<path class="st6" d="M11.04,30.15c0-0.88,0.18-1.58,0.54-2.09c0.36-0.51,0.93-0.77,1.71-0.77c0.78,0,1.35,0.26,1.71,0.77
			c0.36,0.52,0.54,1.21,0.54,2.09c0,0.88-0.18,1.59-0.54,2.1c-0.36,0.52-0.93,0.78-1.71,0.78c-0.78,0-1.35-0.26-1.71-0.78
			C11.22,31.74,11.04,31.03,11.04,30.15z M14.18,30.15c0-0.51-0.06-0.89-0.18-1.16s-0.36-0.4-0.71-0.4c-0.36,0-0.6,0.14-0.72,0.41
			c-0.12,0.27-0.18,0.66-0.18,1.16c0,0.51,0.06,0.9,0.18,1.17c0.12,0.27,0.36,0.41,0.72,0.41c0.35,0,0.59-0.14,0.71-0.41
			S14.18,30.66,14.18,30.15z"/>
		<path class="st6" d="M18.79,29.06c0-0.44-0.19-0.66-0.57-0.66c-0.21,0-0.37,0.07-0.47,0.22s-0.15,0.38-0.16,0.7h-1.34
			c0.03-0.69,0.24-1.21,0.62-1.55c0.38-0.35,0.87-0.52,1.46-0.52c0.61,0,1.08,0.16,1.39,0.46c0.31,0.31,0.47,0.71,0.47,1.21
			c0,0.55-0.21,1.09-0.63,1.61s-0.93,0.97-1.51,1.33h2.23v1.1h-4.03v-1.02C17.94,30.74,18.79,29.78,18.79,29.06z"/>
		<path class="st6" d="M21.04,30.15c0-0.88,0.18-1.58,0.54-2.09c0.36-0.51,0.93-0.77,1.71-0.77c0.78,0,1.35,0.26,1.71,0.77
			c0.36,0.52,0.54,1.21,0.54,2.09c0,0.88-0.18,1.59-0.54,2.1c-0.36,0.52-0.93,0.78-1.71,0.78c-0.78,0-1.35-0.26-1.71-0.78
			C21.22,31.74,21.04,31.03,21.04,30.15z M24.18,30.15c0-0.51-0.06-0.89-0.18-1.16s-0.36-0.4-0.71-0.4c-0.36,0-0.6,0.14-0.72,0.41
			c-0.12,0.27-0.18,0.66-0.18,1.16c0,0.51,0.06,0.9,0.18,1.17c0.12,0.27,0.36,0.41,0.72,0.41c0.35,0,0.59-0.14,0.71-0.41
			S24.18,30.66,24.18,30.15z"/>
	</g>
</g>
</svg>
