<?xml version="1.0" encoding="utf-8"?>
<!-- Generator: Adobe Illustrator 26.5.2, SVG Export Plug-In . SVG Version: 6.00 Build 0)  -->
<svg version="1.1" xmlns="http://www.w3.org/2000/svg" xmlns:xlink="http://www.w3.org/1999/xlink" x="0px" y="0px"
	 viewBox="0 0 181 36" style="enable-background:new 0 0 181 36;" xml:space="preserve">
<style type="text/css">
	.st0{display:none;}
	.st1{display:inline;}
	.st2{fill:none;}
	.st3{stroke:#000000;stroke-width:0.5;stroke-miterlimit:10;}
	.st4{fill:#F6A348;}
	.st5{fill:#D4D7DC;}
	.st6{fill:#FFFFFF;}
</style>
<g id="Data" class="st0">
</g>
<g id="Bars">
	<polygon class="st4" points="0.07,0.11 0.07,11.45 177.83,11.34 180.67,8.5 180.67,0 	"/>
	<polygon class="st5" points="0,24.51 0,35.85 75.23,35.85 78.06,33.02 78.06,24.51 	"/>
	<polygon class="st5" points="0,12.31 0,23.65 171.93,23.65 174.76,20.81 174.76,12.31 	"/>
	<g>
		<path class="st6" d="M8.81,4.97c0-0.44-0.19-0.66-0.57-0.66c-0.21,0-0.37,0.07-0.47,0.22s-0.15,0.38-0.16,0.7H6.27
			C6.3,4.54,6.51,4.02,6.89,3.68c0.38-0.35,0.87-0.52,1.46-0.52c0.61,0,1.08,0.16,1.39,0.46c0.31,0.31,0.47,0.71,0.47,1.21
			c0,0.55-0.21,1.09-0.63,1.61S8.65,7.41,8.06,7.77h2.23v1.1H6.26V7.85C7.96,6.64,8.81,5.68,8.81,4.97z"/>
		<path class="st6" d="M11.06,6.05c0-0.88,0.18-1.58,0.54-2.09c0.36-0.51,0.93-0.77,1.71-0.77c0.78,0,1.35,0.26,1.71,0.77
			c0.36,0.52,0.54,1.21,0.54,2.09c0,0.88-0.18,1.59-0.54,2.1c-0.36,0.52-0.93,0.78-1.71,0.78c-0.78,0-1.35-0.26-1.71-0.78
			C11.24,7.64,11.06,6.94,11.06,6.05z M14.2,6.05c0-0.51-0.06-0.89-0.18-1.16s-0.36-0.4-0.71-0.4c-0.36,0-0.6,0.14-0.72,0.41
			c-0.12,0.27-0.18,0.66-0.18,1.16c0,0.51,0.06,0.9,0.18,1.17c0.12,0.27,0.36,0.41,0.72,0.41c0.35,0,0.59-0.14,0.71-0.41
			S14.2,6.56,14.2,6.05z"/>
		<path class="st6" d="M18.81,4.97c0-0.44-0.19-0.66-0.57-0.66c-0.21,0-0.37,0.07-0.47,0.22s-0.15,0.38-0.16,0.7h-1.34
			c0.03-0.69,0.24-1.21,0.62-1.55c0.38-0.35,0.87-0.52,1.46-0.52c0.61,0,1.08,0.16,1.39,0.46c0.31,0.31,0.47,0.71,0.47,1.21
			c0,0.55-0.21,1.09-0.63,1.61s-0.93,0.97-1.51,1.33h2.23v1.1h-4.03V7.85C17.96,6.64,18.81,5.68,18.81,4.97z"/>
		<path class="st6" d="M23.43,4.97c0-0.44-0.19-0.66-0.57-0.66c-0.21,0-0.37,0.07-0.47,0.22s-0.15,0.38-0.16,0.7h-1.34
			c0.03-0.69,0.24-1.21,0.62-1.55c0.38-0.35,0.87-0.52,1.46-0.52c0.61,0,1.08,0.16,1.39,0.46c0.31,0.31,0.47,0.71,0.47,1.21
			c0,0.55-0.21,1.09-0.63,1.61s-0.93,0.97-1.51,1.33h2.23v1.1h-4.03V7.85C22.58,6.64,23.43,5.68,23.43,4.97z"/>
	</g>
	<g>
		<path class="st6" d="M162.24,7.9c0.31,0,0.53-0.14,0.65-0.42c0.12-0.28,0.18-0.72,0.17-1.32c-0.09,0.22-0.25,0.39-0.47,0.52
			c-0.22,0.12-0.48,0.19-0.77,0.19c-0.53,0-0.96-0.16-1.26-0.48c-0.31-0.32-0.46-0.79-0.46-1.39c0-0.38,0.08-0.71,0.23-1.01
			c0.15-0.29,0.38-0.52,0.68-0.68c0.3-0.16,0.66-0.24,1.08-0.24c0.57,0,1.02,0.12,1.34,0.36c0.32,0.24,0.54,0.57,0.66,0.98
			c0.12,0.41,0.18,0.91,0.18,1.49c0,1.02-0.16,1.8-0.47,2.32C163.5,8.73,162.97,9,162.24,9c-0.41,0-0.75-0.08-1.04-0.24
			c-0.29-0.16-0.51-0.38-0.67-0.65c-0.16-0.27-0.25-0.57-0.27-0.9h1.28C161.61,7.67,161.84,7.9,162.24,7.9z M162.75,4.46
			c-0.14-0.15-0.34-0.23-0.61-0.23c-0.24,0-0.43,0.07-0.56,0.2c-0.14,0.13-0.2,0.33-0.2,0.58s0.07,0.45,0.21,0.59s0.33,0.2,0.57,0.2
			c0.23,0,0.42-0.07,0.58-0.2s0.23-0.32,0.23-0.56C162.96,4.81,162.89,4.61,162.75,4.46z"/>
		<path class="st6" d="M165.59,3.79c0.15-0.24,0.39-0.43,0.69-0.58c0.31-0.15,0.68-0.22,1.12-0.22c0.44,0,0.82,0.08,1.12,0.22
			c0.31,0.15,0.54,0.34,0.69,0.58c0.15,0.24,0.23,0.5,0.23,0.77c0,0.3-0.07,0.55-0.21,0.76c-0.14,0.21-0.34,0.37-0.61,0.48
			c0.63,0.28,0.95,0.76,0.95,1.43c0,0.38-0.1,0.71-0.29,0.99s-0.45,0.48-0.78,0.62c-0.33,0.14-0.7,0.21-1.11,0.21
			c-0.41,0-0.77-0.07-1.1-0.21c-0.33-0.14-0.59-0.35-0.78-0.62s-0.29-0.6-0.29-0.99c0-0.67,0.32-1.15,0.95-1.43
			c-0.27-0.11-0.47-0.27-0.61-0.48s-0.21-0.46-0.21-0.76C165.36,4.29,165.43,4.03,165.59,3.79z M166.78,7.73
			c0.15,0.14,0.36,0.21,0.62,0.21c0.26,0,0.47-0.07,0.62-0.21c0.15-0.14,0.23-0.33,0.23-0.57s-0.08-0.43-0.24-0.56
			c-0.16-0.14-0.36-0.2-0.61-0.2c-0.25,0-0.46,0.07-0.61,0.2c-0.16,0.14-0.24,0.32-0.24,0.56S166.62,7.59,166.78,7.73z M166.89,5.29
			c0.13,0.12,0.29,0.17,0.51,0.17c0.21,0,0.38-0.06,0.51-0.17c0.13-0.11,0.19-0.28,0.19-0.5c0-0.21-0.06-0.38-0.19-0.5
			c-0.13-0.12-0.3-0.18-0.5-0.18s-0.38,0.06-0.5,0.18c-0.13,0.12-0.19,0.29-0.19,0.5C166.7,5.01,166.76,5.17,166.89,5.29z"/>
		<path class="st6" d="M171.85,7.57v1.37h-1.42V7.57H171.85z"/>
		<path class="st6" d="M175.13,4.97c0-0.44-0.19-0.66-0.57-0.66c-0.21,0-0.37,0.07-0.47,0.22s-0.15,0.38-0.16,0.7h-1.34
			c0.03-0.69,0.24-1.21,0.62-1.55c0.38-0.35,0.87-0.52,1.46-0.52c0.61,0,1.08,0.16,1.39,0.46c0.31,0.31,0.47,0.71,0.47,1.21
			c0,0.55-0.21,1.09-0.63,1.61s-0.93,0.97-1.51,1.33h2.23v1.1h-4.03V7.85C174.28,6.64,175.13,5.68,175.13,4.97z"/>
	</g>
	<g>
		<path class="st6" d="M156.21,20.09c0.31,0,0.53-0.14,0.65-0.42c0.12-0.28,0.18-0.72,0.17-1.32c-0.09,0.22-0.25,0.39-0.47,0.52
			c-0.22,0.12-0.48,0.19-0.77,0.19c-0.53,0-0.96-0.16-1.26-0.48c-0.31-0.32-0.46-0.79-0.46-1.39c0-0.38,0.08-0.71,0.23-1.01
			c0.15-0.29,0.38-0.52,0.68-0.68c0.3-0.16,0.66-0.24,1.08-0.24c0.57,0,1.02,0.12,1.34,0.36c0.32,0.24,0.54,0.57,0.66,0.98
			c0.12,0.41,0.18,0.91,0.18,1.49c0,1.02-0.16,1.8-0.47,2.32c-0.31,0.53-0.84,0.79-1.57,0.79c-0.41,0-0.75-0.08-1.04-0.24
			c-0.29-0.16-0.51-0.38-0.67-0.65c-0.16-0.27-0.25-0.57-0.27-0.9h1.28C155.58,19.86,155.81,20.09,156.21,20.09z M156.72,16.65
			c-0.14-0.15-0.34-0.23-0.61-0.23c-0.24,0-0.43,0.07-0.56,0.2c-0.14,0.13-0.2,0.33-0.2,0.58s0.07,0.45,0.21,0.59s0.33,0.2,0.57,0.2
			c0.23,0,0.42-0.07,0.58-0.2s0.23-0.32,0.23-0.56C156.93,17,156.86,16.8,156.72,16.65z"/>
		<path class="st6" d="M163.3,16.54h-2.54v1.14c0.11-0.13,0.27-0.23,0.47-0.3s0.42-0.11,0.65-0.11c0.38,0,0.7,0.08,0.95,0.25
			c0.26,0.17,0.45,0.39,0.57,0.68c0.12,0.28,0.18,0.59,0.18,0.94c0,0.62-0.17,1.11-0.52,1.47c-0.35,0.36-0.83,0.54-1.46,0.54
			c-0.43,0-0.8-0.08-1.11-0.23c-0.31-0.15-0.56-0.36-0.73-0.64c-0.17-0.27-0.26-0.59-0.27-0.94h1.34c0.03,0.18,0.1,0.33,0.22,0.45
			s0.28,0.18,0.49,0.18c0.24,0,0.42-0.08,0.54-0.23c0.12-0.15,0.18-0.36,0.18-0.62c0-0.25-0.06-0.43-0.19-0.57
			c-0.13-0.13-0.31-0.2-0.54-0.2c-0.18,0-0.32,0.04-0.44,0.12s-0.2,0.18-0.24,0.3h-1.33v-3.42h3.78V16.54z"/>
		<path class="st6" d="M165.81,19.77v1.37h-1.42v-1.37H165.81z"/>
		<path class="st6" d="M169.7,15.43c0.28,0.14,0.5,0.32,0.64,0.56c0.15,0.24,0.22,0.5,0.22,0.8c0,0.37-0.09,0.66-0.28,0.89
			c-0.19,0.22-0.43,0.37-0.71,0.42v0.04c0.73,0.24,1.1,0.69,1.1,1.37c0,0.33-0.07,0.62-0.22,0.87c-0.15,0.25-0.37,0.45-0.65,0.59
			c-0.29,0.14-0.63,0.21-1.03,0.21c-0.65,0-1.17-0.16-1.55-0.48c-0.38-0.32-0.59-0.81-0.62-1.46h1.34c0.01,0.25,0.08,0.45,0.21,0.59
			c0.13,0.14,0.31,0.22,0.56,0.22c0.2,0,0.35-0.06,0.47-0.18s0.17-0.27,0.17-0.46c0-0.46-0.34-0.7-1.01-0.7h-0.26v-1.11h0.25
			c0.6,0.01,0.9-0.21,0.9-0.65c0-0.19-0.05-0.34-0.16-0.44c-0.1-0.1-0.24-0.16-0.42-0.16c-0.19,0-0.34,0.07-0.46,0.2
			c-0.11,0.13-0.18,0.31-0.19,0.52h-1.34c0.03-0.6,0.21-1.06,0.56-1.38s0.83-0.48,1.46-0.48C169.08,15.23,169.42,15.3,169.7,15.43z"
			/>
	</g>
	<g>
		<path class="st6" d="M57.48,32.29v-1.14l2.58-3.54h1.47v3.5h0.68v1.19h-0.68v1.04h-1.38v-1.04H57.48z M60.26,29.18l-1.39,1.91
			h1.39V29.18z"/>
		<path class="st6" d="M65.54,29.35c0-0.44-0.19-0.66-0.57-0.66c-0.21,0-0.37,0.07-0.47,0.22s-0.15,0.38-0.16,0.7h-1.34
			c0.03-0.69,0.24-1.21,0.62-1.55c0.38-0.35,0.87-0.52,1.46-0.52c0.61,0,1.08,0.16,1.39,0.46c0.31,0.31,0.47,0.71,0.47,1.21
			c0,0.55-0.21,1.09-0.63,1.61s-0.93,0.97-1.51,1.33h2.23v1.1H63v-1.02C64.69,31.03,65.54,30.06,65.54,29.35z"/>
		<path class="st6" d="M69.13,31.96v1.37h-1.42v-1.37H69.13z"/>
		<path class="st6" d="M72.41,29.35c0-0.44-0.19-0.66-0.57-0.66c-0.21,0-0.37,0.07-0.47,0.22s-0.15,0.38-0.16,0.7h-1.34
			c0.03-0.69,0.24-1.21,0.62-1.55c0.38-0.35,0.87-0.52,1.46-0.52c0.61,0,1.08,0.16,1.39,0.46c0.31,0.31,0.47,0.71,0.47,1.21
			c0,0.55-0.21,1.09-0.63,1.61s-0.93,0.97-1.51,1.33h2.23v1.1h-4.03v-1.02C71.56,31.03,72.41,30.06,72.41,29.35z"/>
	</g>
	<g>
		<path class="st6" d="M8.8,17.16c0-0.44-0.19-0.66-0.57-0.66c-0.21,0-0.37,0.07-0.47,0.22s-0.15,0.38-0.16,0.7H6.26
			c0.03-0.69,0.24-1.21,0.62-1.55c0.38-0.35,0.87-0.52,1.46-0.52c0.61,0,1.08,0.16,1.39,0.46c0.31,0.31,0.47,0.71,0.47,1.21
			c0,0.55-0.21,1.09-0.63,1.61s-0.93,0.97-1.51,1.33h2.23v1.1H6.25v-1.02C7.95,18.83,8.8,17.87,8.8,17.16z"/>
		<path class="st6" d="M11.05,18.25c0-0.88,0.18-1.58,0.54-2.09c0.36-0.51,0.93-0.77,1.71-0.77c0.78,0,1.35,0.26,1.71,0.77
			c0.36,0.52,0.54,1.21,0.54,2.09c0,0.88-0.18,1.59-0.54,2.1c-0.36,0.52-0.93,0.78-1.71,0.78c-0.78,0-1.35-0.26-1.71-0.78
			C11.23,19.83,11.05,19.13,11.05,18.25z M14.19,18.25c0-0.51-0.06-0.89-0.18-1.16s-0.36-0.4-0.71-0.4c-0.36,0-0.6,0.14-0.72,0.41
			c-0.12,0.27-0.18,0.66-0.18,1.16c0,0.51,0.06,0.9,0.18,1.17c0.12,0.27,0.36,0.41,0.72,0.41c0.35,0,0.59-0.14,0.71-0.41
			S14.19,18.75,14.19,18.25z"/>
		<path class="st6" d="M18.8,17.16c0-0.44-0.19-0.66-0.57-0.66c-0.21,0-0.37,0.07-0.47,0.22s-0.15,0.38-0.16,0.7h-1.34
			c0.03-0.69,0.24-1.21,0.62-1.55c0.38-0.35,0.87-0.52,1.46-0.52c0.61,0,1.08,0.16,1.39,0.46c0.31,0.31,0.47,0.71,0.47,1.21
			c0,0.55-0.21,1.09-0.63,1.61s-0.93,0.97-1.51,1.33h2.23v1.1h-4.03v-1.02C17.95,18.83,18.8,17.87,18.8,17.16z"/>
		<path class="st6" d="M20.52,16.76v-1.28h2.29v5.66h-1.44v-4.38H20.52z"/>
	</g>
	<g>
		<path class="st6" d="M8.8,29.06c0-0.44-0.19-0.66-0.57-0.66c-0.21,0-0.37,0.07-0.47,0.22s-0.15,0.38-0.16,0.7H6.26
			c0.03-0.69,0.24-1.21,0.62-1.55c0.38-0.35,0.87-0.52,1.46-0.52c0.61,0,1.08,0.16,1.39,0.46c0.31,0.31,0.47,0.71,0.47,1.21
			c0,0.55-0.21,1.09-0.63,1.61s-0.93,0.97-1.51,1.33h2.23v1.1H6.25v-1.02C7.95,30.74,8.8,29.78,8.8,29.06z"/>
		<path class="st6" d="M11.05,30.15c0-0.88,0.18-1.58,0.54-2.09c0.36-0.51,0.93-0.77,1.71-0.77c0.78,0,1.35,0.26,1.71,0.77
			c0.36,0.52,0.54,1.21,0.54,2.09c0,0.88-0.18,1.59-0.54,2.1c-0.36,0.52-0.93,0.78-1.71,0.78c-0.78,0-1.35-0.26-1.71-0.78
			C11.23,31.74,11.05,31.03,11.05,30.15z M14.19,30.15c0-0.51-0.06-0.89-0.18-1.16s-0.36-0.4-0.71-0.4c-0.36,0-0.6,0.14-0.72,0.41
			c-0.12,0.27-0.18,0.66-0.18,1.16c0,0.51,0.06,0.9,0.18,1.17c0.12,0.27,0.36,0.41,0.72,0.41c0.35,0,0.59-0.14,0.71-0.41
			S14.19,30.66,14.19,30.15z"/>
		<path class="st6" d="M18.8,29.06c0-0.44-0.19-0.66-0.57-0.66c-0.21,0-0.37,0.07-0.47,0.22s-0.15,0.38-0.16,0.7h-1.34
			c0.03-0.69,0.24-1.21,0.62-1.55c0.38-0.35,0.87-0.52,1.46-0.52c0.61,0,1.08,0.16,1.39,0.46c0.31,0.31,0.47,0.71,0.47,1.21
			c0,0.55-0.21,1.09-0.63,1.61s-0.93,0.97-1.51,1.33h2.23v1.1h-4.03v-1.02C17.95,30.74,18.8,29.78,18.8,29.06z"/>
		<path class="st6" d="M21.05,30.15c0-0.88,0.18-1.58,0.54-2.09c0.36-0.51,0.93-0.77,1.71-0.77c0.78,0,1.35,0.26,1.71,0.77
			c0.36,0.52,0.54,1.21,0.54,2.09c0,0.88-0.18,1.59-0.54,2.1c-0.36,0.52-0.93,0.78-1.71,0.78c-0.78,0-1.35-0.26-1.71-0.78
			C21.23,31.74,21.05,31.03,21.05,30.15z M24.19,30.15c0-0.51-0.06-0.89-0.18-1.16s-0.36-0.4-0.71-0.4c-0.36,0-0.6,0.14-0.72,0.41
			c-0.12,0.27-0.18,0.66-0.18,1.16c0,0.51,0.06,0.9,0.18,1.17c0.12,0.27,0.36,0.41,0.72,0.41c0.35,0,0.59-0.14,0.71-0.41
			S24.19,30.66,24.19,30.15z"/>
	</g>
</g>
<g id="Text">
</g>
</svg>
