<?xml version="1.0" encoding="utf-8"?>
<!-- Generator: Adobe Illustrator 27.4.0, SVG Export Plug-In . SVG Version: 6.00 Build 0)  -->
<svg version="1.1" xmlns="http://www.w3.org/2000/svg" xmlns:xlink="http://www.w3.org/1999/xlink" x="0px" y="0px"
	 viewBox="0 0 181 36" style="enable-background:new 0 0 181 36;" xml:space="preserve">
<style type="text/css">
	.st0{display:none;}
	.st1{display:inline;}
	.st2{fill:none;}
	.st3{stroke:#000000;stroke-width:0.5;stroke-miterlimit:10;}
	.st4{fill:#F6A348;}
	.st5{fill:#D4D7DC;}
	.st6{fill:#FFFFFF;}
</style>
<g id="Data" class="st0">
	<g class="st1">
		<g>
			<g>
				<text transform="matrix(1.5993 0 0 1 -3.2516 42.1914)" class="st2" style="font-family:'Poppins-Bold'; font-size:3.409px;">0.0</text>
				<text transform="matrix(1.5993 0 0 1 174.0638 42.1914)" class="st2" style="font-family:'Poppins-Bold'; font-size:3.409px;">62.5</text>
			</g>
			<line class="st2" x1="0.9" y1="39.1" x2="179.7" y2="39.1"/>
			<g>
				<g>
					<line class="st2" x1="0.9" y1="39.1" x2="0.9" y2="38.2"/>
					<line class="st2" x1="179.7" y1="39.1" x2="179.7" y2="38.2"/>
				</g>
				<g>
				</g>
			</g>
		</g>
		<g>
			<line class="st2" x1="0.9" y1="39.1" x2="0.9" y2="2.7"/>
			<g>
				<g>
					<line class="st2" x1="0.9" y1="33" x2="5.4" y2="33"/>
					<line class="st2" x1="0.9" y1="20.9" x2="5.4" y2="20.9"/>
					<line class="st2" x1="0.9" y1="8.8" x2="5.4" y2="8.8"/>
				</g>
				<g>
				</g>
			</g>
		</g>
		<g>
			<g>
				<g>
					<rect x="0.9" y="3.3" class="st3" width="178.8" height="10.9"/>
					<rect x="0.9" y="15.4" class="st3" width="163.6" height="10.9"/>
					<rect x="0.9" y="27.6" class="st3" width="112.4" height="10.9"/>
				</g>
			</g>
		</g>
		<g>
			<g>
			</g>
		</g>
	</g>
</g>
<g id="Bars">
</g>
<g id="Text">
	<g>
		<polygon class="st4" points="0.1,0.1 0.1,11.4 177.8,11.3 180.7,8.5 180.7,0 		"/>
		<polygon class="st5" points="0,24.5 0,35.9 110.8,35.9 113.6,33 113.6,24.5 		"/>
		<polygon class="st5" points="0,12.3 0,23.6 162,23.6 164.9,20.8 164.9,12.3 		"/>
		<g>
			<path class="st6" d="M8.8,5c0-0.4-0.2-0.7-0.6-0.7C8,4.3,7.9,4.4,7.8,4.5S7.6,4.9,7.6,5.2H6.3c0-0.7,0.2-1.2,0.6-1.6
				c0.4-0.3,0.9-0.5,1.5-0.5c0.6,0,1.1,0.2,1.4,0.5c0.3,0.3,0.5,0.7,0.5,1.2c0,0.5-0.2,1.1-0.6,1.6s-0.9,1-1.5,1.3h2.2v1.1h-4v-1
				C7.9,6.6,8.8,5.7,8.8,5z"/>
			<path class="st6" d="M11.1,6.1c0-0.9,0.2-1.6,0.5-2.1c0.4-0.5,0.9-0.8,1.7-0.8c0.8,0,1.3,0.3,1.7,0.8c0.4,0.5,0.5,1.2,0.5,2.1
				c0,0.9-0.2,1.6-0.5,2.1c-0.4,0.5-0.9,0.8-1.7,0.8c-0.8,0-1.4-0.3-1.7-0.8C11.2,7.6,11.1,6.9,11.1,6.1z M14.2,6.1
				c0-0.5-0.1-0.9-0.2-1.2s-0.4-0.4-0.7-0.4c-0.4,0-0.6,0.1-0.7,0.4c-0.1,0.3-0.2,0.7-0.2,1.2c0,0.5,0.1,0.9,0.2,1.2
				c0.1,0.3,0.4,0.4,0.7,0.4c0.4,0,0.6-0.1,0.7-0.4S14.2,6.6,14.2,6.1z"/>
			<path class="st6" d="M18.8,5c0-0.4-0.2-0.7-0.6-0.7c-0.2,0-0.4,0.1-0.5,0.2s-0.2,0.4-0.2,0.7h-1.3c0-0.7,0.2-1.2,0.6-1.6
				c0.4-0.3,0.9-0.5,1.5-0.5c0.6,0,1.1,0.2,1.4,0.5c0.3,0.3,0.5,0.7,0.5,1.2c0,0.5-0.2,1.1-0.6,1.6s-0.9,1-1.5,1.3h2.2v1.1h-4v-1
				C17.9,6.6,18.8,5.7,18.8,5z"/>
			<path class="st6" d="M23.4,5c0-0.4-0.2-0.7-0.6-0.7c-0.2,0-0.4,0.1-0.5,0.2s-0.2,0.4-0.2,0.7h-1.3c0-0.7,0.2-1.2,0.6-1.6
				c0.4-0.3,0.9-0.5,1.5-0.5c0.6,0,1.1,0.2,1.4,0.5c0.3,0.3,0.5,0.7,0.5,1.2c0,0.5-0.2,1.1-0.6,1.6s-0.9,1-1.5,1.3h2.2v1.1h-4v-1
				C22.6,6.6,23.4,5.7,23.4,5z"/>
		</g>
		<g>
			<path class="st6" d="M163,4.3c-0.1-0.1-0.3-0.2-0.5-0.2c-0.3,0-0.5,0.1-0.7,0.4c-0.1,0.3-0.2,0.7-0.2,1.3
				c0.1-0.2,0.2-0.4,0.5-0.5c0.2-0.1,0.5-0.2,0.8-0.2c0.5,0,1,0.2,1.3,0.5c0.3,0.3,0.5,0.8,0.5,1.4c0,0.4-0.1,0.7-0.2,1
				c-0.2,0.3-0.4,0.5-0.7,0.7C163.4,8.9,163,9,162.6,9c-0.8,0-1.4-0.3-1.7-0.8c-0.3-0.5-0.5-1.2-0.5-2.1c0-1,0.2-1.8,0.5-2.3
				c0.3-0.5,0.9-0.7,1.6-0.7c0.6,0,1,0.2,1.4,0.5c0.3,0.3,0.5,0.8,0.5,1.3h-1.3C163.1,4.6,163.1,4.4,163,4.3z M162,7.6
				c0.1,0.2,0.3,0.2,0.6,0.2c0.2,0,0.4-0.1,0.6-0.2c0.1-0.1,0.2-0.3,0.2-0.6s-0.1-0.5-0.2-0.6s-0.3-0.2-0.6-0.2
				c-0.2,0-0.4,0.1-0.6,0.2s-0.2,0.3-0.2,0.6C161.7,7.2,161.8,7.4,162,7.6z"/>
			<path class="st6" d="M168,5c0-0.4-0.2-0.7-0.6-0.7c-0.2,0-0.4,0.1-0.5,0.2c-0.1,0.1-0.2,0.4-0.2,0.7h-1.3c0-0.7,0.2-1.2,0.6-1.6
				c0.4-0.3,0.9-0.5,1.5-0.5c0.6,0,1.1,0.2,1.4,0.5c0.3,0.3,0.5,0.7,0.5,1.2c0,0.5-0.2,1.1-0.6,1.6s-0.9,1-1.5,1.3h2.2v1.1h-4v-1
				C167.2,6.6,168,5.7,168,5z"/>
			<path class="st6" d="M171.6,7.6v1.4h-1.4V7.6H171.6z"/>
			<path class="st6" d="M175.1,4.3c-0.1-0.1-0.3-0.2-0.5-0.2c-0.3,0-0.5,0.1-0.7,0.4c-0.1,0.3-0.2,0.7-0.2,1.3
				c0.1-0.2,0.2-0.4,0.5-0.5c0.2-0.1,0.5-0.2,0.8-0.2c0.5,0,1,0.2,1.3,0.5c0.3,0.3,0.5,0.8,0.5,1.4c0,0.4-0.1,0.7-0.2,1
				c-0.2,0.3-0.4,0.5-0.7,0.7c-0.3,0.2-0.7,0.2-1.1,0.2c-0.8,0-1.4-0.3-1.7-0.8c-0.3-0.5-0.5-1.2-0.5-2.1c0-1,0.2-1.8,0.5-2.3
				c0.3-0.5,0.9-0.7,1.6-0.7c0.6,0,1,0.2,1.4,0.5c0.3,0.3,0.5,0.8,0.5,1.3h-1.3C175.2,4.6,175.2,4.4,175.1,4.3z M174.1,7.6
				c0.1,0.2,0.3,0.2,0.6,0.2c0.2,0,0.4-0.1,0.6-0.2c0.1-0.1,0.2-0.3,0.2-0.6s-0.1-0.5-0.2-0.6s-0.3-0.2-0.6-0.2
				c-0.2,0-0.4,0.1-0.6,0.2s-0.2,0.3-0.2,0.6C173.9,7.2,173.9,7.4,174.1,7.6z"/>
		</g>
		<g>
			<path class="st6" d="M149.4,16.5h-2.5v1.1c0.1-0.1,0.3-0.2,0.5-0.3s0.4-0.1,0.7-0.1c0.4,0,0.7,0.1,1,0.3c0.3,0.2,0.4,0.4,0.6,0.7
				c0.1,0.3,0.2,0.6,0.2,0.9c0,0.6-0.2,1.1-0.5,1.5c-0.3,0.4-0.8,0.5-1.5,0.5c-0.4,0-0.8-0.1-1.1-0.2c-0.3-0.2-0.6-0.4-0.7-0.6
				c-0.2-0.3-0.3-0.6-0.3-0.9h1.3c0,0.2,0.1,0.3,0.2,0.4s0.3,0.2,0.5,0.2c0.2,0,0.4-0.1,0.5-0.2c0.1-0.2,0.2-0.4,0.2-0.6
				c0-0.2-0.1-0.4-0.2-0.6c-0.1-0.1-0.3-0.2-0.5-0.2c-0.2,0-0.3,0-0.4,0.1s-0.2,0.2-0.2,0.3h-1.3v-3.4h3.8V16.5z"/>
			<path class="st6" d="M154.2,16.4l-2,4.7h-1.4l2-4.5h-2.4v-1.2h3.8V16.4z"/>
			<path class="st6" d="M156.2,19.8v1.4h-1.4v-1.4H156.2z"/>
			<path class="st6" d="M159.5,17.2c0-0.4-0.2-0.7-0.6-0.7c-0.2,0-0.4,0.1-0.5,0.2s-0.2,0.4-0.2,0.7H157c0-0.7,0.2-1.2,0.6-1.6
				c0.4-0.3,0.9-0.5,1.5-0.5c0.6,0,1.1,0.2,1.4,0.5c0.3,0.3,0.5,0.7,0.5,1.2c0,0.5-0.2,1.1-0.6,1.6c-0.4,0.5-0.9,1-1.5,1.3h2.2v1.1
				h-4v-1C158.6,18.8,159.5,17.9,159.5,17.2z"/>
		</g>
		<g>
			<path class="st6" d="M96,27.6c0.3,0.1,0.5,0.3,0.6,0.6c0.1,0.2,0.2,0.5,0.2,0.8c0,0.4-0.1,0.7-0.3,0.9c-0.2,0.2-0.4,0.4-0.7,0.4
				v0c0.7,0.2,1.1,0.7,1.1,1.4c0,0.3-0.1,0.6-0.2,0.9c-0.1,0.3-0.4,0.5-0.7,0.6c-0.3,0.1-0.6,0.2-1,0.2c-0.7,0-1.2-0.2-1.5-0.5
				c-0.4-0.3-0.6-0.8-0.6-1.5h1.3c0,0.2,0.1,0.4,0.2,0.6c0.1,0.1,0.3,0.2,0.6,0.2c0.2,0,0.4-0.1,0.5-0.2c0.1-0.1,0.2-0.3,0.2-0.5
				c0-0.5-0.3-0.7-1-0.7h-0.3v-1.1h0.2c0.6,0,0.9-0.2,0.9-0.6c0-0.2-0.1-0.3-0.2-0.4c-0.1-0.1-0.2-0.2-0.4-0.2
				c-0.2,0-0.3,0.1-0.5,0.2c-0.1,0.1-0.2,0.3-0.2,0.5H93c0-0.6,0.2-1.1,0.6-1.4s0.8-0.5,1.5-0.5C95.4,27.4,95.7,27.5,96,27.6z"/>
			<path class="st6" d="M100.1,32.3c0.3,0,0.5-0.1,0.7-0.4c0.1-0.3,0.2-0.7,0.2-1.3c-0.1,0.2-0.2,0.4-0.5,0.5
				c-0.2,0.1-0.5,0.2-0.8,0.2c-0.5,0-1-0.2-1.3-0.5C98.1,30.4,98,30,98,29.4c0-0.4,0.1-0.7,0.2-1s0.4-0.5,0.7-0.7
				c0.3-0.2,0.7-0.2,1.1-0.2c0.6,0,1,0.1,1.3,0.4c0.3,0.2,0.5,0.6,0.7,1c0.1,0.4,0.2,0.9,0.2,1.5c0,1-0.2,1.8-0.5,2.3
				c-0.3,0.5-0.8,0.8-1.6,0.8c-0.4,0-0.8-0.1-1-0.2c-0.3-0.2-0.5-0.4-0.7-0.7c-0.2-0.3-0.2-0.6-0.3-0.9h1.3
				C99.5,32.1,99.7,32.3,100.1,32.3z M100.6,28.8c-0.1-0.2-0.3-0.2-0.6-0.2c-0.2,0-0.4,0.1-0.6,0.2c-0.1,0.1-0.2,0.3-0.2,0.6
				s0.1,0.5,0.2,0.6s0.3,0.2,0.6,0.2c0.2,0,0.4-0.1,0.6-0.2c0.2-0.1,0.2-0.3,0.2-0.6C100.8,29.2,100.8,29,100.6,28.8z"/>
			<path class="st6" d="M104.3,32v1.4h-1.4V32H104.3z"/>
			<path class="st6" d="M108.2,27.6c0.3,0.1,0.5,0.3,0.6,0.6c0.1,0.2,0.2,0.5,0.2,0.8c0,0.4-0.1,0.7-0.3,0.9
				c-0.2,0.2-0.4,0.4-0.7,0.4v0c0.7,0.2,1.1,0.7,1.1,1.4c0,0.3-0.1,0.6-0.2,0.9c-0.1,0.3-0.4,0.5-0.7,0.6c-0.3,0.1-0.6,0.2-1,0.2
				c-0.7,0-1.2-0.2-1.5-0.5c-0.4-0.3-0.6-0.8-0.6-1.5h1.3c0,0.2,0.1,0.4,0.2,0.6c0.1,0.1,0.3,0.2,0.6,0.2c0.2,0,0.4-0.1,0.5-0.2
				c0.1-0.1,0.2-0.3,0.2-0.5c0-0.5-0.3-0.7-1-0.7h-0.3v-1.1h0.2c0.6,0,0.9-0.2,0.9-0.6c0-0.2-0.1-0.3-0.2-0.4
				c-0.1-0.1-0.2-0.2-0.4-0.2c-0.2,0-0.3,0.1-0.5,0.2c-0.1,0.1-0.2,0.3-0.2,0.5h-1.3c0-0.6,0.2-1.1,0.6-1.4s0.8-0.5,1.5-0.5
				C107.6,27.4,108,27.5,108.2,27.6z"/>
		</g>
		<g>
			<path class="st6" d="M8.8,17.2c0-0.4-0.2-0.7-0.6-0.7c-0.2,0-0.4,0.1-0.5,0.2s-0.2,0.4-0.2,0.7H6.3c0-0.7,0.2-1.2,0.6-1.6
				c0.4-0.3,0.9-0.5,1.5-0.5c0.6,0,1.1,0.2,1.4,0.5c0.3,0.3,0.5,0.7,0.5,1.2c0,0.5-0.2,1.1-0.6,1.6S8.6,19.6,8,20h2.2v1.1h-4v-1
				C7.9,18.8,8.8,17.9,8.8,17.2z"/>
			<path class="st6" d="M11,18.2c0-0.9,0.2-1.6,0.5-2.1c0.4-0.5,0.9-0.8,1.7-0.8c0.8,0,1.3,0.3,1.7,0.8c0.4,0.5,0.5,1.2,0.5,2.1
				c0,0.9-0.2,1.6-0.5,2.1c-0.4,0.5-0.9,0.8-1.7,0.8c-0.8,0-1.4-0.3-1.7-0.8C11.2,19.8,11,19.1,11,18.2z M14.2,18.2
				c0-0.5-0.1-0.9-0.2-1.2s-0.4-0.4-0.7-0.4c-0.4,0-0.6,0.1-0.7,0.4c-0.1,0.3-0.2,0.7-0.2,1.2c0,0.5,0.1,0.9,0.2,1.2
				c0.1,0.3,0.4,0.4,0.7,0.4c0.4,0,0.6-0.1,0.7-0.4S14.2,18.8,14.2,18.2z"/>
			<path class="st6" d="M18.8,17.2c0-0.4-0.2-0.7-0.6-0.7c-0.2,0-0.4,0.1-0.5,0.2s-0.2,0.4-0.2,0.7h-1.3c0-0.7,0.2-1.2,0.6-1.6
				c0.4-0.3,0.9-0.5,1.5-0.5c0.6,0,1.1,0.2,1.4,0.5c0.3,0.3,0.5,0.7,0.5,1.2c0,0.5-0.2,1.1-0.6,1.6s-0.9,1-1.5,1.3h2.2v1.1h-4v-1
				C17.9,18.8,18.8,17.9,18.8,17.2z"/>
			<path class="st6" d="M20.5,16.8v-1.3h2.3v5.7h-1.4v-4.4H20.5z"/>
		</g>
		<g>
			<path class="st6" d="M8.8,29.1c0-0.4-0.2-0.7-0.6-0.7c-0.2,0-0.4,0.1-0.5,0.2S7.6,29,7.6,29.3H6.3c0-0.7,0.2-1.2,0.6-1.6
				c0.4-0.3,0.9-0.5,1.5-0.5c0.6,0,1.1,0.2,1.4,0.5c0.3,0.3,0.5,0.7,0.5,1.2c0,0.5-0.2,1.1-0.6,1.6s-0.9,1-1.5,1.3h2.2V33h-4v-1
				C7.9,30.7,8.8,29.8,8.8,29.1z"/>
			<path class="st6" d="M11,30.1c0-0.9,0.2-1.6,0.5-2.1c0.4-0.5,0.9-0.8,1.7-0.8c0.8,0,1.3,0.3,1.7,0.8c0.4,0.5,0.5,1.2,0.5,2.1
				c0,0.9-0.2,1.6-0.5,2.1c-0.4,0.5-0.9,0.8-1.7,0.8c-0.8,0-1.4-0.3-1.7-0.8C11.2,31.7,11,31,11,30.1z M14.2,30.1
				c0-0.5-0.1-0.9-0.2-1.2s-0.4-0.4-0.7-0.4c-0.4,0-0.6,0.1-0.7,0.4c-0.1,0.3-0.2,0.7-0.2,1.2c0,0.5,0.1,0.9,0.2,1.2
				c0.1,0.3,0.4,0.4,0.7,0.4c0.4,0,0.6-0.1,0.7-0.4S14.2,30.7,14.2,30.1z"/>
			<path class="st6" d="M18.8,29.1c0-0.4-0.2-0.7-0.6-0.7c-0.2,0-0.4,0.1-0.5,0.2s-0.2,0.4-0.2,0.7h-1.3c0-0.7,0.2-1.2,0.6-1.6
				c0.4-0.3,0.9-0.5,1.5-0.5c0.6,0,1.1,0.2,1.4,0.5c0.3,0.3,0.5,0.7,0.5,1.2c0,0.5-0.2,1.1-0.6,1.6s-0.9,1-1.5,1.3h2.2V33h-4v-1
				C17.9,30.7,18.8,29.8,18.8,29.1z"/>
			<path class="st6" d="M21,30.1c0-0.9,0.2-1.6,0.5-2.1c0.4-0.5,0.9-0.8,1.7-0.8c0.8,0,1.3,0.3,1.7,0.8c0.4,0.5,0.5,1.2,0.5,2.1
				c0,0.9-0.2,1.6-0.5,2.1c-0.4,0.5-0.9,0.8-1.7,0.8c-0.8,0-1.4-0.3-1.7-0.8C21.2,31.7,21,31,21,30.1z M24.2,30.1
				c0-0.5-0.1-0.9-0.2-1.2s-0.4-0.4-0.7-0.4c-0.4,0-0.6,0.1-0.7,0.4c-0.1,0.3-0.2,0.7-0.2,1.2c0,0.5,0.1,0.9,0.2,1.2
				c0.1,0.3,0.4,0.4,0.7,0.4c0.4,0,0.6-0.1,0.7-0.4S24.2,30.7,24.2,30.1z"/>
		</g>
	</g>
</g>
</svg>
