<?xml version="1.0" encoding="utf-8"?>
<!-- Generator: Adobe Illustrator 26.5.2, SVG Export Plug-In . SVG Version: 6.00 Build 0)  -->
<svg version="1.1" id="Layer_1" xmlns="http://www.w3.org/2000/svg" xmlns:xlink="http://www.w3.org/1999/xlink" x="0px" y="0px"
	 viewBox="0 0 800 200" style="enable-background:new 0 0 800 200;" xml:space="preserve">
<style type="text/css">
	.st0{fill:#FFFFFF;}
	.st1{clip-path:url(#SVGID_00000056424932403136396080000000017738189990803102_);fill:#FFFFFF;}
</style>
<polygon class="st0" points="0,54.25 0,97.13 65.61,162.74 65.61,54.25 "/>
<polygon class="st0" points="81.08,0 81.08,196.84 146.69,131.24 146.69,0 "/>
<polygon class="st0" points="162.16,131.24 227.76,196.84 227.76,131.24 "/>
<g>
	<defs>
		<rect id="SVGID_1_" x="0" y="0" width="800" height="197.23"/>
	</defs>
	<clipPath id="SVGID_00000018923672139703987060000011604337890185843871_">
		<use xlink:href="#SVGID_1_"  style="overflow:visible;"/>
	</clipPath>
	<path style="clip-path:url(#SVGID_00000018923672139703987060000011604337890185843871_);fill:#FFFFFF;" d="M304.03,91.14h31.83
		v2.54c0,5.79-0.68,10.91-2.04,15.37c-1.33,4.13-3.58,7.98-6.74,11.58c-7.15,8.05-16.25,12.08-27.29,12.08
		c-10.78,0-20.01-3.89-27.69-11.67c-7.68-7.82-11.53-17.2-11.53-28.14c0-11.18,3.91-20.66,11.73-28.44
		c7.81-7.81,17.33-11.72,28.54-11.72c6.02,0,11.64,1.23,16.86,3.69c4.99,2.46,9.89,6.45,14.72,11.97l-8.28,7.93
		c-6.32-8.42-14.02-12.62-23.1-12.62c-8.15,0-14.99,2.81-20.51,8.43c-5.52,5.52-8.28,12.44-8.28,20.75c0,8.58,3.07,15.65,9.23,21.21
		c5.75,5.16,11.99,7.73,18.71,7.73c5.72,0,10.86-1.93,15.42-5.79c4.56-3.89,7.11-8.55,7.63-13.97h-19.21V91.14z"/>
	<polygon style="clip-path:url(#SVGID_00000018923672139703987060000011604337890185843871_);fill:#FFFFFF;" points="424.96,65.15 
		394.07,65.15 394.07,83.66 424.06,83.66 424.06,94.59 394.07,94.59 394.07,120.33 424.96,120.33 424.96,131.26 382.44,131.26 
		382.44,54.22 424.96,54.22 	"/>
	<polygon style="clip-path:url(#SVGID_00000018923672139703987060000011604337890185843871_);fill:#FFFFFF;" points="472.67,131.26 
		472.67,48.98 528.85,107.76 528.85,54.22 540.47,54.22 540.47,135.95 484.29,77.32 484.29,131.26 	"/>
	<path style="clip-path:url(#SVGID_00000018923672139703987060000011604337890185843871_);fill:#FFFFFF;" d="M602.66,54.22v46.4
		c0,6.62,1.08,11.46,3.24,14.52c3.23,4.42,7.77,6.64,13.62,6.64c5.89,0,10.45-2.21,13.67-6.64c2.16-2.96,3.25-7.8,3.25-14.52v-46.4
		h11.62v49.59c0,8.12-2.53,14.8-7.58,20.06c-5.69,5.86-12.67,8.78-20.96,8.78c-8.28,0-15.25-2.92-20.91-8.78
		c-5.05-5.26-7.58-11.94-7.58-20.06V54.22H602.66z"/>
	<polygon style="clip-path:url(#SVGID_00000018923672139703987060000011604337890185843871_);fill:#FFFFFF;" points="698.69,54.22 
		698.69,131.12 710.32,119.51 710.32,54.22 	"/>
	<polygon style="clip-path:url(#SVGID_00000018923672139703987060000011604337890185843871_);fill:#FFFFFF;" points="782.12,65.15 
		782.12,131.26 770.49,131.26 770.49,65.15 752.78,65.15 752.78,54.22 799.78,54.22 799.78,65.15 	"/>
	<path style="clip-path:url(#SVGID_00000018923672139703987060000011604337890185843871_);fill:#FFFFFF;" d="M609.46,179.6h13.5
		v1.08c0,2.45-0.29,4.63-0.87,6.52c-0.56,1.75-1.51,3.39-2.86,4.91c-3.03,3.41-6.89,5.12-11.58,5.12c-4.57,0-8.48-1.65-11.74-4.95
		c-3.26-3.31-4.89-7.29-4.89-11.93c0-4.74,1.65-8.76,4.97-12.06c3.31-3.31,7.35-4.97,12.1-4.97c2.55,0,4.94,0.52,7.15,1.57
		c2.12,1.04,4.2,2.73,6.24,5.08l-3.51,3.37c-2.68-3.57-5.95-5.36-9.8-5.36c-3.45,0-6.35,1.19-8.69,3.57
		c-2.35,2.34-3.52,5.27-3.52,8.8c0,3.64,1.31,6.64,3.91,8.99c2.44,2.19,5.08,3.28,7.94,3.28c2.42,0,4.61-0.82,6.54-2.45
		c1.93-1.65,3.01-3.62,3.24-5.93h-8.15V179.6z"/>
	<path style="clip-path:url(#SVGID_00000018923672139703987060000011604337890185843871_);fill:#FFFFFF;" d="M654.37,182.69
		l10.11,13.93h-6.03l-9.33-13.37h-0.89v13.37h-4.93v-32.67h5.78c4.32,0,7.43,0.81,9.35,2.43c2.12,1.81,3.18,4.19,3.18,7.15
		c0,2.32-0.66,4.31-1.99,5.97C658.29,181.16,656.54,182.23,654.37,182.69 M648.23,178.95h1.56c4.67,0,7.01-1.79,7.01-5.36
		c0-3.34-2.27-5.01-6.81-5.01h-1.76V178.95z"/>
	<path style="clip-path:url(#SVGID_00000018923672139703987060000011604337890185843871_);fill:#FFFFFF;" d="M681.06,180.13
		c0-4.6,1.69-8.55,5.06-11.85c3.35-3.3,7.39-4.95,12.1-4.95c4.66,0,8.65,1.66,11.97,4.99c3.34,3.33,5.02,7.33,5.02,12
		c0,4.7-1.68,8.68-5.04,11.95c-3.37,3.29-7.44,4.93-12.21,4.93c-4.22,0-8-1.46-11.36-4.38
		C682.91,189.59,681.06,185.36,681.06,180.13 M686.03,180.19c0,3.62,1.21,6.58,3.64,8.91c2.41,2.33,5.2,3.49,8.36,3.49
		c3.43,0,6.32-1.18,8.68-3.56c2.35-2.4,3.53-5.32,3.53-8.76c0-3.48-1.17-6.4-3.49-8.76c-2.31-2.37-5.17-3.56-8.59-3.56
		c-3.4,0-6.27,1.18-8.61,3.56C687.2,173.86,686.03,176.75,686.03,180.19"/>
	<path style="clip-path:url(#SVGID_00000018923672139703987060000011604337890185843871_);fill:#FFFFFF;" d="M740.39,163.94v19.68
		c0,2.81,0.46,4.86,1.37,6.16c1.37,1.88,3.29,2.82,5.78,2.82c2.5,0,4.43-0.94,5.8-2.82c0.92-1.25,1.37-3.3,1.37-6.16v-19.68h4.93
		v21.03c0,3.44-1.07,6.28-3.21,8.51c-2.41,2.48-5.38,3.72-8.89,3.72s-6.47-1.24-8.86-3.72c-2.15-2.23-3.22-5.07-3.22-8.51v-21.03
		H740.39z"/>
	<path style="clip-path:url(#SVGID_00000018923672139703987060000011604337890185843871_);fill:#FFFFFF;" d="M786.61,183.35v13.27
		h-4.93v-32.67h5.59c2.74,0,4.8,0.19,6.2,0.57c1.41,0.38,2.65,1.1,3.72,2.16c1.88,1.84,2.81,4.14,2.81,6.94c0,2.99-1,5.36-3,7.11
		c-2.01,1.75-4.71,2.62-8.1,2.62H786.61z M786.61,178.78h1.84c4.53,0,6.79-1.74,6.79-5.23c0-3.37-2.33-5.05-7.01-5.05h-1.63V178.78z
		"/>
</g>
</svg>
