<?xml version="1.0" encoding="utf-8"?>
<!-- Generator: Adobe Illustrator 26.5.2, SVG Export Plug-In . SVG Version: 6.00 Build 0)  -->
<svg version="1.1" id="Layer_1" xmlns="http://www.w3.org/2000/svg" xmlns:xlink="http://www.w3.org/1999/xlink" x="0px" y="0px"
	 viewBox="0 0 25 25" style="enable-background:new 0 0 25 25;" xml:space="preserve">
<style type="text/css">
	.st0{fill:#93A1AB;}
	.st1{fill:none;stroke:#004996;stroke-width:0.722;stroke-linecap:round;stroke-linejoin:round;stroke-miterlimit:10;}
</style>
<rect x="16.66" y="18.17" class="st0" width="2.13" height="4.63"/>
<g>
	<path class="st0" d="M9.73,11.51c-0.77,3.08-1.69,3.83-4.24,3.15c0.92,1.16,2.14,1.51,3.73,1.51c2.76,0,4.98-1.9,4.98-4.66
		c0-1.65,0.13-4.29-1.1-5.21C11.55,6.88,10.2,9.62,9.73,11.51"/>
	<path class="st1" d="M6.46,11.21l2.46,2.46l2.46-2.46 M6.46,7.75l2.46,2.46l2.46-2.46 M8.91,6.14V22.8h5.25v-6.63H8.91 M14.2,11.12
		c0,2.89-2.34,5.05-5.23,5.05s-5.23-2.16-5.23-5.05c0-2.89,1.2-8.92,5.23-8.92S14.2,8.23,14.2,11.12z M14.15,16.17l3.63-4.55
		 M14.15,16.17v6.63h7.11v-6.61l-3.48-4.56H14.2"/>
</g>
</svg>
