<?xml version="1.0" encoding="utf-8"?>
<!-- Generator: Adobe Illustrator 26.5.2, SVG Export Plug-In . SVG Version: 6.00 Build 0)  -->
<svg version="1.1" id="Layer_1" xmlns="http://www.w3.org/2000/svg" xmlns:xlink="http://www.w3.org/1999/xlink" x="0px" y="0px"
	 viewBox="0 0 25 25" style="enable-background:new 0 0 25 25;" xml:space="preserve">
<style type="text/css">
	.st0{fill:#93A1AB;}
	.st1{fill:none;stroke:#93A1AB;stroke-width:0.722;stroke-linecap:round;stroke-miterlimit:10;}
	.st2{fill:none;stroke:#004996;stroke-width:0.722;stroke-linecap:round;stroke-linejoin:round;stroke-miterlimit:10;}
</style>
<rect x="5.27" y="19.42" class="st0" width="2.17" height="3.07"/>
<rect x="13.49" y="15.32" class="st0" width="2.17" height="7.17"/>
<rect x="9.24" y="17.37" class="st0" width="2.17" height="5.12"/>
<rect x="17.7" y="13.27" class="st0" width="2.17" height="9.21"/>
<line class="st1" x1="15.85" y1="4.06" x2="20.03" y2="2.91"/>
<g>
	<path class="st2" d="M15.93,3.36l4.2-1.15l1.22,3.96 M3.65,9.16c2.89,0.87,12.26,2.81,16.39-6.98 M21.35,22.82H3.65 M19.87,22.82
		V9.67C19.87,9.3,19.57,9,19.2,9h-0.95c-0.37,0-0.67,0.3-0.67,0.68v13.15 M15.73,22.82V11.94c0-0.37-0.3-0.68-0.68-0.68H14.1
		c-0.37,0-0.68,0.3-0.68,0.68v10.88 M11.58,22.82v-8.61c0-0.37-0.3-0.68-0.67-0.68H9.95c-0.37,0-0.67,0.3-0.67,0.68v8.61
		 M7.43,22.82v-6.34c0-0.37-0.3-0.67-0.68-0.67H5.8c-0.37,0-0.67,0.3-0.67,0.67v6.34"/>
</g>
</svg>
