<?xml version="1.0" encoding="utf-8"?>
<!-- Generator: Adobe Illustrator 26.5.2, SVG Export Plug-In . SVG Version: 6.00 Build 0)  -->
<svg version="1.1" id="Layer_1" xmlns="http://www.w3.org/2000/svg" xmlns:xlink="http://www.w3.org/1999/xlink" x="0px" y="0px"
	 viewBox="0 0 25 25" style="enable-background:new 0 0 25 25;" xml:space="preserve">
<style type="text/css">
	.st0{fill:#93A1AB;}
	.st1{fill:none;stroke:#004996;stroke-width:0.722;stroke-linejoin:round;stroke-miterlimit:10;}
	.st2{fill:none;stroke:#004996;stroke-width:0.722;stroke-linecap:round;stroke-linejoin:round;stroke-miterlimit:10;}
</style>
<rect x="8.02" y="17.68" class="st0" width="1.56" height="3.08"/>
<g>
	<path class="st1" d="M18.76,15.36c0.46-2.35,2.08-13.04-6.12-13.04c-8.07,0-6.63,10.33-6.15,12.92"/>
	<path class="st2" d="M13.8,20.91H7.78v-3.42h6.02V20.91z M10.79,16.01v1.19 M8.39,14.89l-0.87,0.06c-2.1,0.14-3.74,1.89-3.74,4
		v3.73h17.45v-3.73c0-2.11-1.63-3.86-3.74-4l-0.87-0.06 M8.18,7.36c-0.02,0.16-0.03,1.9-0.03,1.9c0,2.48,2.01,4.49,4.49,4.49
		c2.48,0,4.49-2.01,4.49-4.49c0,0-0.01-1.71-0.02-1.85l0-0.05"/>
	<path class="st0" d="M12.81,12.02c1.04,0,1.88-0.84,1.88-1.88h-3.76C10.93,11.18,11.77,12.02,12.81,12.02"/>
</g>
</svg>
