<?xml version="1.0" encoding="utf-8"?>
<!-- Generator: Adobe Illustrator 26.5.2, SVG Export Plug-In . SVG Version: 6.00 Build 0)  -->
<svg version="1.1" id="Layer_1" xmlns="http://www.w3.org/2000/svg" xmlns:xlink="http://www.w3.org/1999/xlink" x="0px" y="0px"
	 viewBox="0 0 25 25" style="enable-background:new 0 0 25 25;" xml:space="preserve">
<style type="text/css">
	.st0{fill:none;stroke:#004996;stroke-width:0.722;stroke-linecap:round;stroke-linejoin:round;}
	.st1{fill:#93A1AB;}
</style>
<g>
	<path class="st0" d="M11.28,2.29L4.74,5.72 M12.94,20.36v-3.25l0.56,0.04c1.36,0.09,2.42,1.22,2.42,2.59v2.56H4.64v-2.56
		c0-1.37,1.06-2.5,2.42-2.59l0.56-0.04v3.25 M7.46,12.27v1.54c0,1.56,1.26,2.83,2.82,2.83c1.56,0,2.82-1.27,2.82-2.83v-1.54
		 M18.51,10.22v1.41 M16.15,10.22v1.41 M18.51,7.19V8.6 M16.15,7.19V8.6 M18.51,13.26v1.41 M16.15,13.26v1.41 M20.36,22.32V5.34
		h-9.08V1.86L4.74,5.29v10.22"/>
</g>
<polygon class="st1" points="4.74,5.72 4.74,7.85 11.28,4.42 11.28,2.29 "/>
<polyline class="st0" points="20.36,22.32 20.36,5.34 11.28,5.34 11.28,1.86 4.74,5.29 4.74,15.51 "/>
<rect x="6.96" y="11" class="st1" width="6.49" height="1.15"/>
<g>
	<path class="st0" d="M7.26,11.08c-0.32,0-0.57,0.3-0.57,0.68v0.29h3.49h3.52v-0.29c0-0.37-0.26-0.68-0.57-0.68l-0.15,0
		c-0.17-1.18-0.54-2.12-1.7-2.35L11.25,8.6c0-0.19-0.12-0.34-0.27-0.34H9.4c-0.15,0-0.27,0.15-0.27,0.34l0.01,0.13
		c-1.18,0.22-1.57,1.16-1.74,2.35L7.26,11.08z"/>
</g>
</svg>
